<?xml version="1.0" encoding="utf-8"?>
<!-- Generator: Adobe Illustrator 23.0.3, SVG Export Plug-In . SVG Version: 6.00 Build 0)  -->
<svg version="1.1" id="Layer_1" xmlns="http://www.w3.org/2000/svg" xmlns:xlink="http://www.w3.org/1999/xlink" x="0px" y="0px"
	 viewBox="0 0 200 73.5" style="enable-background:new 0 0 200 73.5;" xml:space="preserve">
<style type="text/css">
	.st0{fill:#FCFCFC;}
</style>
<g id="Logo_1_">
	<path class="st0" d="M200,27.7c-0.3,0.6-0.7,1.2-1,1.9c-4.5,13.3-8.9,26.6-13.3,40c-0.6,1.7-1.2,2.1-2.9,1.4
		c-2.5-0.9-5-1.7-7.5-2.4c-1.3-0.4-1.8-1-1.6-2.3c0.4-2.2-0.5-3.1-2.8-3.3c-2.7-0.2-5.3-0.7-8.3-1.2c0.1-1.9,0.2-3.6,0.4-5.5
		c-2.8,0.5-5.6,1-8.6,1.6c0.1,1.4,0.2,3,0.3,5c-2.9-0.5-5.7-0.9-8.5-1.4c-1.9-0.3-3.8-0.9-5.8-1c-1.7-0.1-2.1-1-2.1-2.5
		s-0.4-3-1.1-4.6c-0.6,1.1-1.3,2.2-2,3.6c-1.2-2.2-2.3-4.1-3.8-6.7c-0.5,2-0.8,3.4-1.2,5c-4.5-0.7-8.8-1.3-13.1-2
		c-1-0.2-1.2-0.8-1-1.8c0.3-1.6,0.5-3.3,0.8-5.3c-1.9,0.8-3.5,1.4-5.1,2c-1,0.4-2.1,0.6-3.1,0.9c-3.4,0.8-3.4,0.8-3.5,4.5
		c0,2.8,0,5.6,0,8.9c-9.1-4.5-17.9-8.8-27-13.3c-0.1,1.1-0.2,1.9-0.3,2.8c0,2.4-0.1,4.9-0.1,7.3c0,1.1-0.2,1.7-1.5,1.8
		c-3.7,0.5-7.3,1.1-11.1,1.6c-0.3-2-0.5-3.7-0.8-5.8c-0.8,0.6-1.4,0.9-1.9,1.4c-6.4,4.8-14.9,4.4-19.7-1c-2.5-2.8-3.3-6.1-3.4-9.7
		c-2.6,0.7-3.2,1.7-2.6,4.1c1.3,5.4,2.6,10.7,4,16.4c-4.4,1.4-8.8,2.9-13.4,4.3c-4.9-11-10-22.1-15.1-33.4c-1.3,0.5-2.3,0.9-3.5,1.4
		C5.9,35.5,3,30.6,0,25.5c1.1-0.7,2-1.4,3-2c8.2-5,16.9-8.1,26.7-7.5c4.1,0.2,8,1.3,11.3,3.9c4.9,3.8,6.9,8.7,5.7,15.4
		c5-3.3,10.1-4,15.7-2.4c-0.2-1.8-0.3-3.2-0.5-5c-1.1,0.1-1.9,0.2-3.1,0.3c-0.2-2.9-0.4-5.7-0.5-8.5c0-0.4,0.5-1,0.9-1.1
		c5.6-1.8,11.2-3.6,17.1-5.5c0,2.3,0,4.4,0,6.4c0.2,0.1,0.4,0.1,0.7,0.2c1.2-2.2,2.4-4.5,3.7-6.9c3.3,2.9,6.5,5.6,9.5,8.5
		c1.6,1.6,2.9,1.7,4.6,0.2c0.9-0.8,2.1-1.4,3.4-2.2c-0.7-1-1.3-1.9-2.1-2.9c4.4-5.1,8.8-10.2,13.5-15.6c2.5,3.8,4.9,7.3,7.4,11.1
		c-3.6,2-7,3.8-10.5,5.7c0,0.2-0.1,0.4-0.1,0.6c5.5,0.4,10,2.7,13.8,7.3c0.4-2.2,0.6-3.9,0.9-5.7c0.8-3.9-0.1-3.3,3.8-3.3
		c2.6,0,5.3,0,7.9,0c0.9,0,1.9,0.1,2.2-1.2c0.1-0.3,0.8-0.7,1.2-0.7c3.2-0.1,6.4-0.1,9.5,0c0.5,0,1.3,1,1.5,1.6c0.9,5,1.7,10,2.5,15
		c0,0.3,0.2,0.5,0.3,1c4.9-2.9,10-4.2,15.5-1.8c0.8-1.3,0.4-2-0.8-2.2c-1.1-0.2-1.4-0.8-1.4-1.8c0-2.7,0-5.4,0-8.3
		c4.3,0.9,8.3,1.8,12.3,2.7c0.7,0.1,1.3,0.4,2,0.4c3.1,0.1,4.5,1.8,4.7,4.8c0,0.6,0.3,1.2,0.9,1.8c0.5-1.6,0.9-3.2,1.5-5
		c4.1,1,8,2,12,2.9c1,0.2,2.1,0.3,3.2,0.5C200,26.6,200,27.2,200,27.7z M37.2,66.1c-1.4-5.5-2.7-10.7-4.1-15.8
		c-0.4-1.5-0.1-2.3,1.1-3.2c4.3-3.1,7.6-6.9,9.2-12c1.5-4.9,0.1-8.9-3.7-12.2c-3.2-2.8-7.1-3.8-11.3-3.9c-8.4-0.3-15.9,2.5-23.1,6.7
		c-0.3,0.2-0.7,0.4-1,0.6c1.4,2.3,2.6,4.4,3.8,6.4C10,36,10,36,13.5,34.6c0.1,0,0.3,0,0.5,0c0.8,1.8,1.7,3.7,2.6,5.6
		c4,8.9,7.9,17.8,12,26.6c0.3,0.6,1.3,1.5,1.7,1.4C32.5,67.8,34.7,66.9,37.2,66.1z M165.8,21.7c0.4,1.6,0.4,3.5,1,3.7
		c2.3,0.7,1.6,2.2,1.6,3.7c-0.1,1.2-0.2,2.8,0.4,3.6c4.6,6.6,4.4,13.8-1.2,19.5c-2.1,2.2-1.7,4.6-1.8,7.1c2,0.3,3.8,0.6,5.6,1
		c1.2,0.2,1.8-0.2,2-1.5c0.7-4.5,1.6-9,2.4-13.5c0.2,0,0.4,0,0.5,0c0,5.1,0,10.3,0,15.4c0,5.2,0,5.2,5.1,6.7c1.5,0.4,2.1,0,2.5-1.3
		c1.2-4,2.6-8,3.9-11.9c2.6-8,5.3-16,8-24c0.5-1.5,0.1-2.1-1.3-2.4c-1.9-0.3-3.7-0.7-5.5-1.2c-1.7-0.5-2.4,0-2.8,1.7
		c-1,4.6-2.2,9.1-3.3,13.6c-1.2-4.5-2.3-8.9-3-13.5c-0.5-3.2-1.7-5.1-5.2-5.2c-1.6,0-3.2-0.6-4.8-0.9
		C168.7,22.1,167.6,22,165.8,21.7z M79.2,37.6c3.9-4.1,7.5-8,11.2-11.9c-2.9-2.8-5.6-5.3-8.5-8.1c-2.7,3.8-5.3,7.4-8.1,11.3
		c-0.2-3.2-0.4-6-0.5-8.7c-0.1-2.4-0.1-2.5-2.4-1.9c-2.5,0.7-4.9,1.5-7.4,2.2C61,21.3,60.7,22,62,24.4c0.8-0.1,1.7-0.2,2.6-0.4
		c0.1,0.7,0.2,1.3,0.3,1.8c0.2,2.4,0.3,4.7,0.5,7.1c0.1,1.2,0.3,2.5,1,3.4c3.6,4.7,3.7,9.6,1.8,14.9c-0.5,1.4-0.8,3-0.8,4.5
		c0,3.8,0.1,3.8,3.8,3.4c4.1-0.5,4.1-0.5,4.1-4.6c0-3.2,0-6.4,0-10c9.2,4.6,17.9,9,27.2,13.6c0-2.5-0.1-4.4,0-6.2
		c0.1-1.4-0.4-2.1-2-2.4c-4.4-0.8-7.9-3-10.4-6.7c-0.5-0.7-1.4-1.3-2.2-1.6C85.2,39.9,82.4,38.8,79.2,37.6z M151,59.2
		c0.2-1.7,0-2.6-1.4-3.3c-1-0.5-1.8-1.2-2.6-1.9c-4.6-4.5-4.9-11.8-0.7-17.6c0.9-1.3,1.2-2.5,0.9-3.9c-0.6-3.5-1.1-6.9-1.6-10.4
		c-0.7-4.6-0.7-4.6-5.4-4.6c-1.7,0-2.2,0.7-2.5,2.2c-0.5,3.3-1.1,6.5-1.7,9.8c-0.8-2.7-1.3-5.4-1.8-8.1c-0.2-1.3-0.7-1.9-2.1-1.8
		c-1.8,0.1-3.7,0.1-5.5,0c-1.6-0.1-2.2,0.5-2.4,2c-0.6,4.1-1.2,8.2-2.1,12.2c-0.5,2.3-0.4,4.2,1.8,5.6c0.1,0.1,0.1,0.2,0.2,0.7
		c-3.7,2-4,5.7-4.5,9.4c-0.2,1.2,0.3,1.6,1.3,1.7c1.9,0.3,3.8,0.5,5.6,1s2.2-0.3,2.4-1.9c0.4-3.3,1-6.5,1.6-10.3
		c1.8,3.8,3.3,7,5.1,10.9c1.2-3.1,2.3-5.5,3.4-8.3c0.8,5,1.4,9.5,2.2,14c0.1,0.5,0.5,1.3,0.8,1.4C145.1,58.3,148,58.7,151,59.2z
		 M116.9,26.2c-1-0.9-1.7-1.7-2.5-2.3c-5.6-4.2-14.7-3.3-19.9,2c-3.6,3.8-4.5,8.3-2.7,13.1c1.7,4.7,5.4,7,10.2,7.5
		c6.3,0.7,11.7-1.4,16.5-5.4c0.4-0.4,0.8-0.9,1.4-1.4c-2.1-1.9-4.1-3.6-6.2-5.5c-2.1,2.3-4.3,3.9-7.7,3.9
		C109.7,34,113.2,30.2,116.9,26.2z M56.7,34.4c-6.5,0-12.8,5.3-14,11.7c-1.3,7,3.6,13.2,10.3,12.9c7-0.3,13.2-6.2,13.9-13.3
		C67.6,39.3,63.2,34.4,56.7,34.4z M159.6,31.7c-6.4,0-12.3,5.2-13.5,11.8S150.4,55.8,157,55c6.1-0.8,11-5.3,12.3-11.3
		C170.7,37.2,166.2,31.7,159.6,31.7z M109.2,5.3c-2.8,3.4-5.5,6.5-8,9.7c-0.3,0.3-0.2,1.1,0,1.6c0.1,0.3,1,0.4,1.4,0.2
		c2.2-1,4.4-2.1,6.6-3.2c1.4-0.7,2.8-1.5,4.4-2.3C112.1,9.2,110.8,7.4,109.2,5.3z M84.2,36.6c1.4,0.5,2.6,1,4.1,1.5
		c-0.1-1.9-0.3-3.4-0.4-5c-0.2-0.1-0.3-0.1-0.5-0.2C86.4,34.1,85.4,35.3,84.2,36.6z M119.8,29.1c-0.2-0.1-0.4-0.2-0.6-0.2
		c-0.9,1-1.8,1.9-2.9,3c0.9,0.8,1.6,1.4,2.7,2.3C119.3,32.2,119.6,30.6,119.8,29.1z"/>
	<path class="st0" d="M31.1,44.1c-1.4-4.4-2.5-8-3.6-11.7c-0.3-0.9-0.1-1.5,1-1.8c2.7-1,5.9-0.3,7.4,1.6c1.5,1.9,1.5,5.1-0.2,7.4
		C34.5,41.1,32.9,42.4,31.1,44.1z M32.1,39.6c2.3-1.5,3.1-3.7,2.2-5.5c-0.7-1.4-2.3-1.9-4.2-1.2C30.8,35.1,31.4,37.3,32.1,39.6z"/>
	<path class="st0" d="M108.6,28.9c-2.8,3.1-5.4,6.1-8.1,9.2c-2.2-1.4-2.6-3.4-2.4-5.6c0.2-2.5,1.7-4.3,4-5.1
		C104.3,26.6,106.6,26.8,108.6,28.9z M105.8,29.2c-2.4-0.8-4-0.2-5.1,1.3c-1,1.4-1.2,2.9-0.1,4.8C102.3,33.2,103.9,31.4,105.8,29.2z
		"/>
	<path class="st0" d="M55.2,37.5c-2.1,2.5-2.1,4.4-0.2,5.8c2.1,1.6,4.7,0.9,6.4-1.8c0.8,3-0.7,5.6-3.8,6.5c-3.2,0.9-6.3-0.7-7.2-3.8
		C49.6,41.3,51.2,38.8,55.2,37.5z"/>
	<path class="st0" d="M164,39c0.3,3.3-1.4,5.7-4.4,6.1c-3.6,0.5-6.4-1.4-6.9-4.7c-0.4-2.6,1.5-5,4.6-5.6c-0.4,0.9-1.2,1.9-1.1,2.8
		c0,1,0.6,2.1,1.4,2.8C159.4,42,161.6,41.4,164,39z"/>
</g>
</svg>
